<?xml version="1.0" standalone="no"?>
<!DOCTYPE svg PUBLIC "-//W3C//DTD SVG 20010904//EN"
 "http://www.w3.org/TR/2001/REC-SVG-20010904/DTD/svg10.dtd">
<svg version="1.0" xmlns="http://www.w3.org/2000/svg"
 width="1024.000000pt" height="1024.000000pt" viewBox="0 0 1024.000000 1024.000000"
 preserveAspectRatio="xMidYMid meet">
<metadata>
Created by potrace 1.14, written by Peter Selinger 2001-2017
</metadata>
<g transform="translate(0.000000,1024.000000) scale(0.100000,-0.100000)"
fill="#000000" stroke="none">
<path d="M0 5120 l0 -5120 5120 0 5120 0 0 5120 0 5120 -5120 0 -5120 0 0
-5120z m6356 3085 c-8 -8 -18 -15 -22 -15 -3 0 -1 7 6 15 7 8 17 15 22 15 5 0
3 -7 -6 -15z m-81 -23 c-3 -3 -11 0 -18 7 -9 10 -8 11 6 5 10 -3 15 -9 12 -12z
m42 4 c-3 -8 2 -16 14 -19 10 -3 19 -2 19 3 0 4 19 7 42 7 23 0 44 5 46 11 2
7 15 1 30 -13 15 -14 31 -25 37 -25 5 0 4 4 -4 9 -7 5 -10 14 -7 20 4 6 2 11
-5 11 -7 0 -10 3 -6 6 7 7 35 -8 38 -21 5 -25 69 -35 134 -21 l30 6 -27 -11
c-16 -6 -28 -15 -28 -20 0 -6 7 -6 18 0 12 6 23 6 33 -1 11 -8 11 -9 -3 -4
-20 6 -24 -9 -6 -20 6 -4 16 0 23 9 13 17 31 24 21 8 -9 -14 20 -21 35 -8 11
10 11 9 0 -5 -12 -16 -10 -18 15 -19 l29 -1 -25 -8 c-30 -9 -40 -8 180 -16 96
-4 177 -8 179 -10 2 -2 -8 -17 -23 -34 l-26 -32 1 -636 c1 -350 5 -621 8 -602
6 31 7 32 13 12 5 -18 12 -22 35 -20 25 3 28 0 30 -27 2 -16 7 -52 13 -80 5
-27 12 -67 15 -87 l6 -38 57 0 c88 0 163 -11 159 -24 -2 -7 -45 -11 -126 -11
-130 0 -141 -4 -141 -52 0 -19 -6 -23 -29 -23 -16 0 -31 -6 -33 -12 -3 -7 -2
-485 1 -1063 3 -577 6 -1072 6 -1100 l0 -50 -460 -3 c-253 -2 -489 0 -525 3
l-65 7 -144 141 c-79 78 -193 197 -255 264 -153 168 -459 496 -580 624 -56 58
-171 189 -256 290 -85 101 -186 215 -223 253 -38 39 -76 80 -84 93 -24 36 -32
27 -27 -29 2 -29 5 -414 7 -855 l2 -802 -585 1 c-322 1 -614 3 -650 5 l-65 4
6 637 c3 350 8 961 9 1357 2 396 6 689 10 650 11 -115 10 762 0 990 -9 183
-13 213 -29 236 l-20 27 547 0 c514 0 549 -1 577 -18 46 -29 669 -668 880
-905 55 -60 190 -207 301 -325 210 -224 279 -301 317 -357 12 -18 25 -33 28
-33 15 0 19 130 21 679 1 322 5 561 8 531 5 -33 7 29 6 150 -1 218 -5 235 -50
260 -14 7 -26 16 -26 19 0 4 64 5 141 3 103 -3 140 -1 135 7 -4 6 -3 11 3 11
5 0 12 -6 14 -12 4 -9 8 -9 14 -3 4 6 15 11 23 13 22 5 41 23 35 33 -3 4 4 6
16 4 13 -3 30 1 38 8 14 11 14 10 2 -6 -8 -10 -20 -16 -27 -13 -7 3 -15 -2
-18 -10 -7 -19 -1 -18 45 8 25 14 35 24 27 29 -15 9 56 23 77 15 9 -3 14 -2
10 3 -5 10 4 41 12 41 3 0 3 -6 0 -14z m-1632 -116 c3 -5 1 -10 -4 -10 -6 0
-11 5 -11 10 0 6 2 10 4 10 3 0 8 -4 11 -10z m172 -5 c0 -8 -4 -15 -9 -15 -10
0 -11 14 -1 23 9 10 10 9 10 -8z m552 -51 c-6 -8 -17 -14 -23 -14 -6 0 -3 5 7
11 9 6 14 15 11 21 -4 7 -2 8 5 4 9 -6 9 -11 0 -22z m351 -65 c0 -18 -2 -20
-15 -9 -13 11 -13 15 -3 21 18 12 18 12 18 -12z m-139 -16 c-12 -20 -14 -14
-5 12 4 9 9 14 11 11 3 -2 0 -13 -6 -23z m43 18 c3 -5 -2 -15 -12 -22 -15 -12
-16 -12 -5 2 7 9 10 19 6 22 -3 4 -4 7 0 7 3 0 8 -4 11 -9z m-900 -17 c3 -8 2
-12 -4 -9 -6 3 -10 10 -10 16 0 14 7 11 14 -7z m1063 -61 c-2 -16 -4 -3 -4 27
0 30 2 43 4 28 2 -16 2 -40 0 -55z m-1130 61 c-3 -3 -12 -4 -19 -1 -8 3 -5 6
6 6 11 1 17 -2 13 -5z m718 -20 c72 -9 164 -27 205 -40 42 -13 87 -25 100 -27
24 -4 25 -8 25 -68 0 -71 -20 -126 -49 -135 -18 -6 -18 -8 5 -25 31 -24 22
-24 -32 0 -24 11 -91 32 -149 46 l-105 27 -265 -7 c-146 -4 -299 -8 -341 -10
-42 -1 -81 -5 -88 -9 -7 -5 -28 8 -51 31 -22 21 -56 51 -75 67 -20 16 -33 31
-31 34 8 7 96 38 217 77 102 32 229 52 364 58 74 3 106 0 270 -19z m-890 -54
c3 -6 -1 -7 -9 -4 -18 7 -21 14 -7 14 6 0 13 -4 16 -10z m1302 -72 c-3 -8 -6
-5 -6 6 -1 11 2 17 5 13 3 -3 4 -12 1 -19z m-2620 -570 c-2 -29 -3 -8 -3 47 0
55 1 79 3 53 2 -26 2 -71 0 -100z m-81 -81 c-7 -34 -32 -74 -41 -65 -3 3 5 31
17 63 22 59 35 60 24 2z m-133 -267 c-3 -12 -8 -19 -11 -16 -5 6 5 36 12 36 2
0 2 -9 -1 -20z m4667 -367 c13 -1 28 3 32 9 4 7 9 1 14 -15 3 -16 4 -31 0 -34
-3 -4 -6 4 -6 17 0 23 0 23 -14 4 -13 -18 -15 -18 -21 -2 -6 16 -9 16 -22 2
-9 -8 -22 -13 -29 -10 -7 3 -16 1 -20 -5 -3 -5 -14 -7 -25 -4 -11 4 -19 2 -19
-5 0 -7 -6 -8 -17 -2 -10 5 -33 8 -52 7 -20 0 -35 5 -39 13 -7 18 20 35 30 19
4 -7 8 -7 8 -2 0 15 40 16 40 2 0 -7 4 -6 10 3 8 13 13 13 31 2 19 -12 21 -12
16 2 -5 14 -3 15 13 6 13 -7 21 -7 26 2 5 7 3 8 -6 3 -9 -6 -11 -4 -5 5 7 11
10 10 19 -1 6 -8 22 -16 36 -16z m80 -3 c0 -5 -5 -10 -11 -10 -5 0 -7 5 -4 10
3 6 8 10 11 10 2 0 4 -4 4 -10z m23 -5 c-3 -9 -8 -14 -10 -11 -3 3 -2 9 2 15
9 16 15 13 8 -4z m-103 -25 c0 -5 -8 -10 -17 -10 -15 0 -16 2 -3 10 19 12 20
12 20 0z m-20 -40 c0 -5 -5 -10 -11 -10 -5 0 -7 5 -4 10 3 6 8 10 11 10 2 0 4
-4 4 -10z m-4593 -52 c-2 -13 -4 -5 -4 17 -1 22 1 32 4 23 2 -10 2 -28 0 -40z
m4174 -93 l-6 -60 -13 72 c-14 82 -6 127 14 78 8 -20 10 -51 5 -90z m-2436
-1660 c144 -37 284 -55 438 -56 146 -1 164 -13 43 -29 -107 -14 -228 -9 -363
14 -118 21 -154 32 -249 77 -88 43 -114 69 -41 43 23 -8 101 -30 172 -49z m50
-271 c180 -23 221 -25 415 -20 118 3 231 8 250 11 21 3 13 -1 -20 -11 -41 -12
-116 -17 -294 -21 -277 -6 -431 6 -546 43 -85 26 -105 41 -42 30 20 -3 127
-18 237 -32z m-255 -841 c-1 -5 -21 -23 -46 -41 -25 -18 -49 -43 -53 -55 -5
-12 -6 -197 -2 -411 l6 -388 42 -38 c23 -20 40 -40 36 -44 -10 -10 -78 -7 -89
4 -6 6 -47 6 -114 0 -57 -5 -107 -7 -111 -5 -3 3 -20 0 -38 -5 -47 -13 -39 10
15 44 83 53 84 57 82 471 -1 356 -2 358 -24 384 -13 15 -41 36 -63 46 -23 10
-41 21 -41 25 0 5 55 6 123 3 99 -4 183 1 270 16 4 0 7 -2 7 -6z m2826 -7 c11
-11 157 -338 197 -441 87 -223 211 -469 253 -503 l35 -29 -32 -7 c-38 -7 -275
-8 -267 -1 3 3 25 9 49 14 43 9 43 9 9 10 -19 0 -48 -6 -64 -14 -33 -17 -46
-19 -46 -5 0 5 14 17 31 26 31 16 32 17 26 76 -3 38 -13 71 -25 87 l-19 26
-189 -1 c-134 -1 -175 2 -141 8 26 5 115 7 199 6 l151 -3 18 -36 c11 -19 22
-63 25 -97 l7 -62 92 0 93 0 -43 99 c-61 141 -129 269 -133 250 -5 -25 -96
-40 -289 -46 l-173 -6 -9 24 c-5 13 -10 18 -10 12 -1 -9 -19 -13 -56 -13 l-56
0 -38 -82 c-77 -167 -93 -199 -117 -227 l-25 -30 85 -3 c115 -4 118 -3 100 30
-18 35 -18 78 1 86 11 4 15 -2 15 -21 0 -17 13 -38 36 -60 25 -23 33 -38 27
-44 -15 -15 -325 -8 -330 7 -2 6 12 21 30 32 19 11 50 42 68 68 32 46 162 332
216 474 13 36 33 79 44 96 11 18 25 52 33 77 7 25 22 58 33 74 25 35 43 88 43
124 0 24 5 28 33 32 25 3 108 -2 113 -7z m-4550 -199 c300 -306 445 -469 430
-484 -3 -3 -29 11 -57 32 -42 30 -64 38 -111 43 -32 2 -61 9 -64 13 -3 5 -16
9 -28 9 -13 0 -41 12 -62 26 -47 32 50 -73 245 -264 111 -109 128 -123 156
-120 16 2 29 6 28 11 -2 4 -3 94 -3 200 0 108 -4 186 -9 179 -6 -11 -17 -11
-45 -4 l-36 10 0 -49 c0 -27 -4 -49 -9 -49 -17 0 -24 85 -25 315 -1 127 -5
238 -10 248 -5 10 -35 31 -67 48 -33 16 -59 30 -59 32 0 1 98 3 218 4 216 1
217 1 177 -17 -47 -21 -89 -63 -105 -104 -7 -19 -10 -165 -10 -435 l1 -406
-60 -3 c-51 -2 -60 0 -55 12 4 11 -33 53 -116 133 -68 65 -204 206 -303 313
-100 107 -184 196 -187 198 -3 1 -4 -120 -2 -270 5 -301 6 -306 73 -362 42
-35 36 -43 -23 -35 -80 11 -236 11 -218 -1 11 -7 0 -10 -37 -10 -29 0 -53 4
-53 8 0 4 21 25 46 46 25 21 52 53 60 71 10 24 13 117 15 395 2 415 5 399 -89
434 -29 10 -49 22 -46 27 3 5 58 9 123 9 l117 0 200 -203z m3125 179 c93 -24
156 -72 197 -151 23 -43 27 -62 27 -140 0 -80 -3 -95 -27 -135 -35 -61 -70
-94 -123 -119 -25 -12 -45 -27 -45 -34 1 -51 172 -288 241 -334 22 -14 39 -28
39 -32 0 -7 -192 -3 -227 4 -24 6 -156 171 -236 297 -35 54 -53 76 -61 68 -5
-5 -48 -9 -95 -9 l-86 2 90 12 90 12 -100 -1 c-55 0 -125 4 -156 8 -32 5 -58
5 -61 0 -3 -5 -9 -74 -12 -154 -5 -104 -12 -156 -25 -185 l-18 -40 91 0 91 0
-1 165 -1 165 6 -137 6 -137 33 -33 c55 -57 51 -59 -145 -57 l-178 1 30 24
c51 41 67 58 78 84 12 26 13 745 1 782 -3 10 -30 32 -60 49 -30 17 -54 34 -54
37 0 4 142 6 315 5 248 -1 327 -5 376 -17z m2328 -442 c10 -9 -106 -3 -119 6
-10 8 5 9 50 4 36 -4 67 -8 69 -10z m-6296 -1 c-40 -2 -106 -2 -145 0 -40 1
-8 3 72 3 80 0 112 -2 73 -3z m4092 -518 c6 -2 -16 -4 -47 -4 -32 -1 -58 3
-58 8 0 8 79 5 105 -4z m113 -2 c-10 -2 -28 -2 -40 0 -13 2 -5 4 17 4 22 1 32
-1 23 -4z m-1493 -363 l35 0 0 -145 0 -145 85 0 85 0 0 -45 0 -45 -119 0 -118
0 -8 192 c-4 105 -9 198 -12 207 -3 12 -2 12 7 -1 7 -12 24 -18 45 -18z
m-1685 2 l105 4 -4 -43 c-3 -40 -5 -43 -31 -43 -16 0 -40 4 -54 10 -14 5 -27
6 -27 2 -1 -4 -4 -74 -8 -157 -6 -148 -6 -150 -30 -153 -13 -2 -27 0 -32 5 -5
5 -10 76 -11 156 l-1 147 -58 0 -59 0 0 44 0 43 53 -9 c28 -6 99 -8 157 -6z
m2841 5 c-1 -4 -1 -26 -1 -48 l0 -41 -54 4 -53 4 -7 -150 c-4 -82 -9 -152 -12
-155 -3 -3 -13 0 -22 5 -16 11 -24 78 -31 264 l-1 36 -52 -1 -53 0 -3 42 -3
42 138 3 c164 4 155 4 154 -5z m766 -19 c51 -30 93 -103 93 -159 0 -53 -37
-149 -72 -186 -25 -26 -95 -39 -135 -25 l-28 10 33 1 c18 1 45 7 61 15 42 22
111 102 110 128 0 22 -1 22 -9 3 -7 -16 -9 -12 -9 18 -1 44 -17 80 -32 71 -5
-3 -19 6 -31 21 -12 15 -36 34 -55 41 -88 37 -162 -67 -120 -169 24 -56 40
-63 100 -44 29 9 69 25 89 36 37 18 37 18 27 0 -17 -33 -122 -89 -165 -89 -15
0 -114 122 -132 163 -10 24 -9 33 8 65 62 118 170 158 267 100z m388 -32 c75
-78 149 -172 156 -200 6 -20 3 -26 -12 -28 -17 -3 -15 -8 17 -40 42 -44 51
-46 57 -15 3 13 5 8 6 -15 0 -22 -4 -38 -10 -38 -17 0 -139 122 -139 139 0 9
-21 40 -47 70 -56 64 -58 62 -62 -84 -1 -55 -4 -102 -7 -104 -2 -2 -10 2 -19
9 -12 10 -14 28 -8 96 4 57 2 84 -5 84 -6 0 -13 34 -17 78 -4 42 -9 85 -12 95
-9 34 50 7 102 -47z m682 37 c27 -15 37 -26 35 -39 -7 -38 -20 -43 -71 -27
-26 9 -59 13 -72 10 -23 -6 -55 -44 -46 -54 3 -2 36 -11 74 -19 111 -23 155
-71 132 -142 -27 -83 -88 -122 -168 -107 -76 14 -127 68 -95 100 19 19 23 19
44 0 14 -13 65 -18 123 -13 19 1 33 39 23 63 -3 10 -19 15 -45 15 -48 0 -145
55 -137 77 3 8 1 11 -4 8 -21 -13 -23 49 -3 84 41 71 125 88 210 44z m-3858
-1 c41 -20 46 -31 27 -57 -12 -17 -19 -18 -82 -8 -56 9 -73 8 -91 -3 -35 -22
-28 -42 15 -50 67 -12 141 -45 162 -71 42 -54 15 -144 -53 -176 -38 -19 -113
-22 -137 -7 -11 7 -3 10 29 10 56 0 128 40 137 76 4 14 4 28 0 31 -3 4 -6 -1
-6 -9 0 -9 -16 -30 -36 -48 -34 -29 -41 -31 -99 -28 -50 2 -61 0 -53 -9 18
-22 -9 -15 -37 10 -27 22 -27 23 -8 46 16 19 25 22 51 16 45 -9 40 -23 -10
-28 -24 -2 -3 -4 45 -5 82 -2 90 0 113 23 32 32 22 48 -44 65 -62 17 -101 37
-134 68 -42 39 -37 75 16 128 41 42 46 44 102 44 36 0 72 -7 93 -18z m517 -7
c66 -33 97 -86 96 -164 0 -68 -11 -98 -52 -144 -39 -45 -106 -72 -161 -64 -32
4 -53 16 -91 54 -27 26 -58 66 -69 89 -17 36 -18 48 -9 89 21 92 108 165 196
165 23 0 62 -11 90 -25z m1026 -102 c-3 -91 -8 -133 -19 -149 -25 -38 -76 -64
-126 -64 -41 0 -49 4 -86 46 -45 51 -50 50 -25 -2 22 -47 74 -78 116 -69 47
10 116 52 123 75 3 11 11 20 16 20 10 0 -14 -65 -33 -87 -41 -49 -139 -58
-188 -17 -50 43 -61 75 -66 198 -2 61 -6 123 -9 139 -4 26 -3 27 35 27 l40 0
0 -124 c0 -110 2 -126 21 -150 24 -31 81 -36 117 -10 21 14 22 22 22 149 l0
134 33 4 c17 2 32 5 32 5 0 1 -2 -55 -3 -125z m758 -70 l0 -184 -27 3 -28 3
-11 180 c-6 99 -10 183 -8 186 1 3 19 3 38 1 l36 -4 0 -185z m1099 30 c0 -91
-3 -142 -9 -138 -6 3 -10 15 -10 26 0 12 -7 19 -20 19 -19 0 -20 7 -20 124 0
122 1 125 23 128 12 2 25 -1 29 -6 4 -6 7 -75 7 -153z m-4633 -25 c-4 -100 -8
-183 -9 -184 -1 -1 -13 -5 -27 -9 l-25 -6 -2 191 -2 190 36 0 36 0 -7 -182z"/>
<path d="M6440 8171 c0 -6 4 -13 10 -16 6 -3 7 1 4 9 -7 18 -14 21 -14 7z"/>
<path d="M6320 8150 c0 -5 5 -10 11 -10 5 0 7 5 4 10 -3 6 -8 10 -11 10 -2 0
-4 -4 -4 -10z"/>
<path d="M6270 8140 c8 -5 20 -10 25 -10 6 0 3 5 -5 10 -8 5 -19 10 -25 10 -5
0 -3 -5 5 -10z"/>
<path d="M6696 8093 c-4 -9 -4 -18 -1 -21 3 -3 5 0 5 6 0 7 8 12 18 12 14 0
15 -2 2 -10 -13 -8 -12 -10 3 -10 23 0 22 17 -2 29 -15 8 -20 7 -25 -6z"/>
<path d="M6118 8073 c7 -3 16 -2 19 1 4 3 -2 6 -13 5 -11 0 -14 -3 -6 -6z"/>
<path d="M3268 8033 c12 -2 30 -2 40 0 9 3 -1 5 -23 4 -22 0 -30 -2 -17 -4z"/>
<path d="M5868 8023 c6 -2 18 -2 25 0 6 3 1 5 -13 5 -14 0 -19 -2 -12 -5z"/>
<path d="M3485 7861 l-100 -6 3 -1730 c2 -1244 6 -1731 14 -1736 29 -18 858
-23 876 -5 15 15 22 358 22 1081 0 718 -2 858 -15 905 -8 30 -13 55 -12 56 1
1 18 -19 37 -44 172 -230 306 -382 645 -732 71 -74 172 -182 224 -240 112
-125 616 -655 786 -826 199 -200 210 -204 626 -204 l296 0 7 38 c3 20 7 213 8
427 1 215 4 356 8 315 4 -41 7 182 8 495 2 615 -1 704 -27 712 -33 9 -126 57
-133 67 -4 6 -8 -55 -8 -135 0 -80 -3 -168 -7 -195 -7 -46 -8 -47 -14 -19 -4
17 -8 71 -9 120 -1 50 -6 119 -10 155 -5 51 -7 32 -9 -95 -2 -226 -20 -238
-22 -15 -2 133 -4 160 -9 110 -4 -36 -8 -107 -9 -158 -1 -59 -5 -91 -11 -87
-6 4 -11 75 -12 173 l-1 167 -8 -135 c-3 -74 -8 -137 -10 -140 -2 -3 -6 60 -9
140 l-6 145 -3 -220 c-3 -240 -18 -273 -21 -45 -1 74 -6 164 -10 200 -6 54 -7
38 -10 -90 -1 -85 -6 -218 -9 -295 l-8 -140 -3 120 c-1 66 -6 201 -9 300 -8
202 -8 211 -20 -305 l-7 -275 -2 310 c-2 329 -9 445 -25 445 -6 0 -7 -18 -3
-47 3 -26 3 -196 -1 -377 l-8 -331 -7 205 c-10 333 -12 1030 -2 1390 8 303 9
323 16 210 4 -69 7 -324 6 -568 0 -243 2 -446 6 -449 3 -3 6 83 6 193 0 109 3
366 7 569 10 482 20 360 24 -285 l3 -485 7 365 c3 201 7 455 9 565 2 137 5
187 11 160 4 -22 8 -174 8 -337 1 -186 5 -299 11 -303 7 -4 10 63 11 192 1
109 5 257 8 328 l8 130 3 -215 c3 -170 5 -196 10 -125 6 88 6 87 9 -50 1 -77
6 -149 11 -160 6 -13 8 9 7 65 -1 47 0 177 2 290 l4 205 8 -315 c5 -173 12
-353 17 -400 8 -72 10 -45 12 175 4 386 16 460 20 120 l3 -280 15 383 c8 211
11 386 8 390 -4 3 -11 0 -15 -7 -6 -10 -13 -10 -29 -2 -16 9 -21 7 -27 -6 -3
-10 -9 -13 -13 -8 -8 12 -42 16 -42 6 0 -4 -50 -6 -112 -6 l-111 1 7 -358 c4
-198 3 -643 -1 -991 l-8 -632 -7 320 c-4 176 -6 621 -5 990 l2 670 -107 -1
c-72 0 -108 3 -108 10 0 7 43 11 128 12 70 0 204 4 298 8 l171 7 6 -443 c7
-460 14 -608 28 -608 5 0 9 9 9 19 0 41 11 52 45 45 40 -7 54 12 56 73 l1 38
13 -45 c10 -38 13 42 16 515 2 308 3 562 1 565 -2 3 -206 5 -453 6 l-449 0 2
-968 c2 -532 2 -968 1 -968 -1 0 -23 26 -49 58 -25 31 -150 167 -278 303 -261
277 -644 691 -732 791 -33 37 -191 203 -352 370 -417 430 -400 421 -772 424
-140 0 -300 -2 -355 -5z m605 -20 c20 -9 9 -10 -50 -4 -41 3 -147 7 -235 7
-111 0 -142 2 -100 7 87 10 356 3 385 -10z m-503 -7 c-3 -3 -12 -4 -19 -1 -8
3 -5 6 6 6 11 1 17 -2 13 -5z m-99 -11 c-10 -2 -28 -2 -40 0 -13 2 -5 4 17 4
22 1 32 -1 23 -4z m479 -123 c108 -15 198 -60 296 -150 70 -65 201 -207 532
-574 175 -195 925 -1009 945 -1026 34 -29 405 -442 545 -605 253 -296 263
-308 349 -422 42 -57 90 -110 106 -118 17 -9 30 -20 30 -26 0 -6 -6 -7 -12 -3
-47 27 -82 62 -190 187 -67 78 -165 190 -218 248 -52 58 -130 146 -173 197
-52 62 -82 89 -92 86 -8 -4 -15 -1 -15 6 0 6 5 8 10 5 29 -18 3 18 -52 70 -34
33 -56 52 -49 43 8 -11 9 -18 3 -18 -6 0 -13 4 -16 9 -4 5 -39 26 -79 45 -39
20 -93 56 -119 80 -26 24 -64 50 -85 57 -21 7 -43 20 -50 27 -7 8 -21 20 -32
26 -10 6 -43 27 -72 47 -30 20 -110 66 -178 103 -68 37 -137 77 -155 89 -61
43 -102 65 -194 103 -41 17 -133 71 -159 94 -7 5 -22 10 -34 10 -20 0 -108 41
-139 66 -8 6 -33 18 -55 25 -22 8 -49 23 -60 33 -11 10 -13 15 -5 11 9 -5 12
-4 7 1 -5 5 -10 7 -11 4 -5 -9 -80 63 -246 235 -257 267 -334 355 -505 570
-195 246 -222 289 -243 375 -13 51 -22 71 -37 76 -54 20 322 31 452 14z m2462
-576 c1 -220 -2 -612 -6 -870 -7 -414 -9 -447 -14 -279 -15 448 -5 1763 12
1610 4 -33 7 -240 8 -461z m-130 -76 c1 -334 5 -528 11 -528 6 0 9 155 10 418
0 229 3 480 7 557 10 169 21 -845 14 -1200 -5 -244 -19 -225 -20 28 -1 91 -5
147 -11 147 -6 0 -11 -72 -12 -192 -1 -106 -3 -161 -5 -123 -1 39 -7 136 -13
217 -11 160 -1 1286 11 1233 4 -16 7 -267 8 -557z m-88 152 c4 -475 -2 -964
-12 -860 -10 117 -9 1300 2 1230 4 -30 9 -197 10 -370z m45 -433 c-2 -324 -6
-590 -9 -593 -17 -17 -21 580 -8 1241 l4 200 8 -130 c5 -71 7 -395 5 -718z
m-88 176 c0 -280 -4 -456 -7 -393 -9 166 -5 900 4 900 3 0 4 -228 3 -507z
m-1527 430 c13 -16 12 -17 -3 -4 -10 7 -18 15 -18 17 0 8 8 3 21 -13z m80 -80
c13 -16 12 -17 -3 -4 -10 7 -18 15 -18 17 0 8 8 3 21 -13z m-40 -115 c27 -33
32 -43 15 -28 -29 25 -71 80 -63 80 3 0 24 -24 48 -52z m-1124 -140 c-2 -13
-4 -5 -4 17 -1 22 1 32 4 23 2 -10 2 -28 0 -40z m1536 -143 c45 -49 66 -76 48
-60 -18 17 -69 71 -114 120 -45 50 -66 77 -48 60 18 -16 69 -70 114 -120z
m-1456 -203 c-1 -53 -3 -7 -3 103 0 110 2 154 3 97 2 -57 2 -147 0 -200z m136
-138 c-7 -253 8 -1164 18 -1054 3 41 7 302 9 580 1 278 5 546 9 595 5 52 9
-198 11 -590 2 -392 6 -644 11 -595 4 47 8 339 10 650 1 341 5 527 10 470 4
-52 5 -212 2 -355 -3 -143 0 -411 6 -595 5 -184 7 -409 4 -500 -8 -185 -20
-175 -22 18 -1 74 -5 122 -11 122 -6 0 -10 -63 -11 -167 -1 -185 -17 -171 -19
17 -3 157 -18 180 -20 30 -1 -69 -5 -150 -10 -180 -5 -43 -8 -22 -9 95 -3 201
-19 236 -20 43 -1 -92 -5 -148 -11 -148 -6 0 -10 46 -10 117 0 136 -8 149 -11
18 -3 -124 -17 -153 -20 -40 -3 167 -17 157 -19 -15 l-3 -165 -8 149 c-9 163
-19 205 -19 79 0 -44 -3 -102 -7 -129 -8 -47 -8 -46 -15 41 -4 50 -11 108 -16
130 -10 39 -10 39 -12 -25 -1 -36 -6 -76 -10 -90 l-8 -25 -3 25 c-5 53 -21
-114 -27 -290 l-7 -185 -9 345 c-4 190 -9 370 -9 400 -2 83 25 444 33 450 4 3
11 61 16 130 l9 125 6 -105 c4 -58 7 -172 8 -255 1 -169 20 -242 22 -85 0 62
3 88 9 75 5 -11 6 123 4 305 -3 191 -1 346 5 375 8 41 10 20 9 -110 -2 -350 2
-668 9 -661 4 4 11 181 15 394 5 213 13 497 17 632 7 208 8 178 5 -195 -2
-242 -6 -546 -8 -675 -3 -180 -2 -206 4 -112 4 68 10 126 14 129 3 4 6 -41 6
-98 0 -57 4 -109 8 -116 4 -6 6 154 4 355 -1 202 1 518 6 702 l9 335 1 -560
c1 -308 5 -639 9 -735 7 -165 8 -170 14 -90 4 47 8 387 10 755 1 436 5 635 10
570 5 -55 6 -195 2 -311z m-215 -67 c1 -254 -2 -478 -7 -497 -5 -23 -10 95
-12 340 -5 483 -2 620 14 620 1 0 3 -208 5 -463z m362 -1052 c5 -12 10 228 11
615 2 613 3 623 10 300 14 -642 15 -1298 2 -1311 -11 -10 -13 19 -13 147 -1
236 -19 172 -28 -98 l-8 -223 -7 235 c-7 182 -3 1403 5 1675 1 28 5 -258 10
-635 5 -377 13 -694 18 -705z m1310 1310 c13 -14 21 -25 18 -25 -2 0 -15 11
-28 25 -13 14 -21 25 -18 25 2 0 15 -11 28 -25z m190 -201 c84 -94 75 -91 -23
6 -58 58 -111 116 -117 130 -10 23 44 -29 140 -136z m-1376 -579 c3 -330 8
-683 10 -785 3 -131 2 -149 -3 -63 -3 67 -9 125 -13 129 -5 4 -8 -59 -8 -141
0 -82 -2 -146 -4 -144 -6 6 -8 401 -6 1059 0 322 5 576 9 565 5 -11 11 -290
15 -620z m-47 -425 c0 -201 -2 -417 -6 -480 -6 -112 -7 -109 -14 110 -7 209
-4 1317 4 1385 5 50 16 -625 16 -1015z m90 513 c3 -279 6 -535 7 -568 0 -33
-1 -157 -3 -275 -3 -194 -5 -206 -12 -120 -4 52 -9 181 -11 285 -5 287 1 1199
8 1193 3 -4 8 -235 11 -515z m-458 393 c-9 -8 -10 -2 -5 29 3 22 7 51 8 65 1
14 3 1 5 -29 3 -33 0 -58 -8 -65z m528 -131 l0 -140 -7 115 c-4 63 -7 151 -7
195 0 78 0 79 7 25 5 -30 8 -118 7 -195z m-570 48 c-2 -32 -3 -6 -3 57 0 63 1
89 3 58 2 -32 2 -84 0 -115z m1953 52 c13 -14 21 -25 18 -25 -2 0 -15 11 -28
25 -13 14 -21 25 -18 25 2 0 15 -11 28 -25z m-1423 -152 c-2 -32 -3 -8 -3 52
0 61 1 87 3 58 2 -29 2 -78 0 -110z m1513 52 l25 -30 -33 29 c-17 17 -32 34
-32 40 0 6 3 6 8 1 4 -6 18 -23 32 -40z m-868 -199 c45 -50 65 -75 44 -56 -44
41 -170 182 -143 161 9 -7 54 -55 99 -105z m-627 -738 c-3 -92 -10 -177 -15
-190 -8 -16 -9 19 -5 122 3 80 6 309 7 510 l1 365 9 -320 c5 -176 6 -395 3
-487z m1740 672 l30 -35 -28 25 c-16 14 -33 34 -39 45 -11 21 -10 20 37 -35z
m-585 -501 c135 -140 344 -361 465 -489 369 -393 396 -419 460 -455 101 -57
195 -76 403 -82 141 -4 182 -9 182 -19 0 -17 -266 -9 -414 12 -175 25 -210 49
-471 329 -93 99 -209 223 -259 275 -50 53 -163 174 -251 270 -88 95 -196 212
-240 260 -87 94 -280 313 -304 345 -8 11 30 -27 85 -85 54 -58 209 -220 344
-361z m750 313 c0 -8 -13 3 -28 24 -16 21 -36 45 -46 53 -9 8 -27 28 -38 45
-12 17 8 0 45 -38 37 -38 67 -76 67 -84z m153 -27 c3 -82 1 -141 -4 -130 -4
11 -8 83 -8 160 1 178 6 164 12 -30z m94 38 c-3 -10 -5 -2 -5 17 0 19 2 27 5
18 2 -10 2 -26 0 -35z m-2122 -451 c-4 -134 -9 -241 -11 -239 -3 2 -1 161 3
353 5 192 9 300 11 239 2 -60 0 -219 -3 -353z m2072 421 c-3 -10 -5 -4 -5 12
0 17 2 24 5 18 2 -7 2 -21 0 -30z m-2630 -145 c-3 -8 -6 -5 -6 6 -1 11 2 17 5
13 3 -3 4 -12 1 -19z m2900 -25 c-3 -10 -5 -4 -5 12 0 17 2 24 5 18 2 -7 2
-21 0 -30z m-489 -109 c-4 -3 -12 5 -18 18 -12 22 -12 22 6 6 10 -10 15 -20
12 -24z m-2081 -631 c-3 -10 -5 -2 -5 17 0 19 2 27 5 18 2 -10 2 -26 0 -35z
m223 -419 c8 -8 -71 -13 -272 -17 -156 -4 -304 -10 -330 -13 -43 -6 -48 -5
-48 13 0 11 2 22 4 24 10 10 636 3 646 -7z"/>
<path d="M5745 5870 c27 -27 51 -50 54 -50 3 0 -17 23 -44 50 -27 28 -51 50
-54 50 -3 0 17 -22 44 -50z"/>
<path d="M5890 5715 c30 -30 57 -55 59 -55 3 0 -19 25 -49 55 -30 30 -57 55
-59 55 -3 0 19 -25 49 -55z"/>
<path d="M4465 7820 c21 -22 41 -40 44 -40 3 0 -13 18 -34 40 -21 22 -41 40
-44 40 -3 0 13 -18 34 -40z"/>
<path d="M5844 7100 c0 -124 2 -174 3 -112 2 61 2 163 0 225 -1 61 -3 11 -3
-113z"/>
<path d="M5142 7098 c188 -209 722 -765 652 -678 -59 74 -118 137 -339 365
-133 138 -292 305 -354 373 -62 67 -115 122 -117 122 -3 0 68 -82 158 -182z"/>
<path d="M6607 6965 c3 -71 7 -132 9 -134 7 -8 2 153 -6 209 -5 35 -6 7 -3
-75z"/>
<path d="M5843 6740 c0 -47 2 -66 4 -42 2 23 2 61 0 85 -2 23 -4 4 -4 -43z"/>
<path d="M6573 6720 c0 -36 2 -50 4 -32 2 17 2 47 0 65 -2 17 -4 3 -4 -33z"/>
<path d="M6940 6670 c-11 -7 -4 -10 25 -10 29 0 36 3 25 10 -8 5 -19 10 -25
10 -5 0 -17 -5 -25 -10z"/>
<path d="M3212 6065 c-1 -352 1 -407 13 -392 16 22 89 34 109 18 20 -17 26 48
26 294 0 228 -2 237 -53 240 -11 1 -23 7 -25 14 -2 6 -7 9 -11 6 -5 -2 -16 2
-26 9 -15 11 -20 33 -25 117 -4 62 -7 -62 -8 -306z"/>
<path d="M7052 6433 c-16 -11 -46 -17 -88 -17 -54 -1 -64 -4 -64 -18 0 -51 97
-80 133 -40 14 15 52 93 45 91 -2 0 -14 -7 -26 -16z"/>
<path d="M7061 6108 c-1 -17 -7 -28 -16 -28 -34 0 -86 -80 -90 -139 -1 -14 -5
-45 -9 -67 -4 -23 -3 -68 3 -100 9 -50 17 -65 56 -102 25 -24 45 -47 45 -53 0
-5 4 -9 9 -9 5 0 12 -10 14 -22 2 -13 5 87 5 222 0 135 -3 263 -7 285 -7 32
-9 34 -10 13z"/>
<path d="M4570 5987 c0 -2 15 -16 33 -33 l32 -29 -29 33 c-28 30 -36 37 -36
29z"/>
<path d="M4502 5933 c-13 -3 -25 -10 -28 -17 -3 -7 34 -51 82 -97 48 -46 184
-190 304 -319 119 -129 308 -329 419 -445 110 -115 290 -304 399 -419 108
-115 245 -258 303 -319 l106 -110 249 -8 c137 -5 356 -6 486 -3 229 6 237 7
242 28 3 11 8 250 10 531 4 385 2 495 -6 448 -6 -35 -15 -63 -19 -63 -5 0 -9
-8 -9 -18 0 -28 -63 -78 -92 -73 -5 0 -9 -11 -9 -26 l-1 -28 -8 30 c-6 22 -15
-466 -13 -668 0 -18 -14 -19 -326 -15 -358 5 -377 8 -481 70 -37 22 -140 122
-320 310 -488 508 -684 707 -694 701 -5 -3 -6 -1 -3 4 6 10 -211 245 -361 393
-60 59 -44 36 26 -38 27 -28 39 -47 32 -52 -6 -4 -8 -14 -5 -22 4 -9 2 -19 -4
-23 -7 -3 -8 0 -5 9 4 10 -1 18 -10 22 -13 5 -14 9 -5 20 14 17 9 25 -19 27
-11 0 -18 6 -16 12 7 16 -32 48 -61 51 -22 2 -84 59 -85 77 0 14 -28 37 -42
36 -7 -1 -23 -4 -36 -6z m168 -183 c0 -5 -2 -10 -4 -10 -3 0 -8 5 -11 10 -3 6
-1 10 4 10 6 0 11 -4 11 -10z m360 -259 c0 -18 -17 -12 -37 12 -10 13 -37 36
-61 52 -23 15 -43 32 -43 36 -1 5 -3 14 -4 19 -1 6 -3 15 -4 21 0 6 -7 9 -14
6 -15 -6 -35 14 -30 30 2 6 -5 14 -16 18 -21 6 -26 16 -14 28 7 8 223 -207
223 -222z m-290 189 c8 -5 11 -12 7 -16 -4 -4 -15 0 -24 9 -18 18 -8 23 17 7z
m100 -107 c0 -7 -39 17 -46 28 -3 6 5 3 20 -6 14 -10 26 -19 26 -22z m224
-111 c3 -5 -1 -9 -9 -9 -8 0 -15 4 -15 9 0 4 4 8 9 8 6 0 12 -4 15 -8z"/>
<path d="M4645 5850 c3 -5 8 -10 11 -10 2 0 4 5 4 10 0 6 -5 10 -11 10 -5 0
-7 -4 -4 -10z"/>
<path d="M4452 5825 c0 -16 2 -22 5 -12 2 9 2 23 0 30 -3 6 -5 -1 -5 -18z"/>
<path d="M3215 4621 c3 -227 8 -417 10 -422 7 -10 1217 0 1228 10 9 9 17 646
10 724 -5 46 -6 47 -38 47 -18 0 -35 6 -38 13 -3 9 -9 9 -25 0 -16 -10 -22
-10 -25 0 -9 25 -17 -85 -27 -362 -6 -156 -13 -288 -16 -293 -8 -13 -852 -4
-885 10 -15 6 -29 21 -32 34 -4 13 -7 131 -7 263 0 132 -3 256 -6 276 -6 33
-9 37 -33 34 -14 -2 -43 -1 -63 2 -32 5 -38 10 -47 42 -8 26 -9 -79 -6 -378z"/>
<path d="M4460 2956 c0 -18 -22 -26 -76 -26 -52 0 -51 4 -57 -163 -4 -110 -6
-121 -35 -167 l-31 -50 42 7 c23 5 73 8 110 8 68 0 68 0 61 25 -4 14 -6 105
-5 203 1 97 0 177 -3 177 -3 0 -6 -6 -6 -14z"/>
<path d="M7327 3284 c-4 -4 -7 -15 -7 -25 0 -9 -25 -75 -56 -145 -31 -71 -62
-146 -69 -166 l-14 -37 152 -3 c84 -2 153 -2 155 -2 5 2 -124 331 -144 367 -6
10 -13 14 -17 11z"/>
<path d="M7758 2533 c17 -2 47 -2 65 0 17 2 3 4 -33 4 -36 0 -50 -2 -32 -4z"/>
<path d="M2562 2830 c5 -133 -3 -200 -31 -239 -12 -16 -21 -31 -21 -33 0 -1
48 -5 106 -6 l105 -4 -25 51 c-24 46 -26 61 -26 181 l0 130 -27 11 c-16 6 -41
13 -57 16 l-29 6 5 -113z"/>
<path d="M5648 3353 l-78 -4 0 -144 0 -145 163 0 c196 1 231 7 275 54 27 30
32 43 32 84 0 60 -30 110 -80 134 -38 18 -180 28 -312 21z"/>
<path d="M5841 2865 c31 -55 191 -276 213 -294 9 -7 42 -11 84 -9 l70 3 -80
110 c-44 61 -94 138 -111 172 l-31 62 -87 3 -87 3 29 -50z"/>
<path d="M5453 2533 c26 -2 68 -2 95 0 26 2 4 3 -48 3 -52 0 -74 -1 -47 -3z"/>
<path d="M4711 1856 l-1 -49 38 7 c20 3 64 6 97 7 54 1 57 2 25 9 -64 15 -131
15 -141 -1 -8 -11 -9 -9 -4 7 3 12 1 32 -4 45 -8 20 -10 17 -10 -25z"/>
<path d="M2993 1840 c0 -25 2 -35 4 -22 2 12 2 32 0 45 -2 12 -4 2 -4 -23z"/>
<path d="M5733 1880 c0 -36 2 -50 4 -32 2 17 2 47 0 65 -2 17 -4 3 -4 -33z"/>
<path d="M7550 1994 c0 -3 16 -12 35 -20 40 -16 89 -19 80 -4 -3 6 -19 10 -35
10 -16 0 -40 4 -54 10 -14 5 -26 7 -26 4z"/>
<path d="M7700 1950 c0 -5 4 -10 10 -10 5 0 12 -11 16 -25 15 -62 -67 -107
-154 -85 -53 13 -63 8 -28 -15 34 -23 109 -21 149 3 58 33 73 107 27 132 -14
7 -20 7 -20 0z"/>
<path d="M3655 2021 c25 -30 75 -51 117 -50 27 1 21 4 -27 16 -33 8 -71 24
-85 36 l-25 22 20 -24z"/>
<path d="M4225 2081 c-35 -15 -57 -49 -62 -95 -10 -82 48 -132 141 -123 88 8
132 88 91 166 -25 49 -112 75 -170 52z"/>
<path d="M4431 1994 c0 -11 3 -14 6 -6 3 7 2 16 -1 19 -3 4 -6 -2 -5 -13z"/>
<path d="M4101 1953 c19 -49 49 -92 90 -124 36 -28 45 -31 92 -27 29 2 68 12
88 22 43 20 82 84 77 124 -4 25 -5 23 -16 -15 -15 -51 -43 -80 -91 -93 -50
-14 -87 -12 -120 4 -33 18 -96 86 -106 115 -3 12 -10 21 -15 21 -6 0 -5 -12 1
-27z"/>
<path d="M6125 1869 c-4 -18 -3 -35 4 -42 8 -8 11 0 11 31 0 50 -6 54 -15 11z"/>
<path d="M2580 1866 c0 -20 4 -36 8 -36 12 0 13 58 1 65 -5 4 -9 -10 -9 -29z"/>
</g>
</svg>
